<?xml version="1.0" standalone="no"?>
<!DOCTYPE svg PUBLIC "-//W3C//DTD SVG 20010904//EN"
 "http://www.w3.org/TR/2001/REC-SVG-20010904/DTD/svg10.dtd">
<svg version="1.0" xmlns="http://www.w3.org/2000/svg"
 width="191.000000pt" height="164.000000pt" viewBox="0 0 191.000000 164.000000"
 preserveAspectRatio="xMidYMid meet">
<metadata>
Created by potrace 1.10, written by Peter Selinger 2001-2011
</metadata>
<g transform="translate(0.000000,164.000000) scale(0.100000,-0.100000)"
fill="#000000" stroke="none">
<path d="M898 1580 c-48 -26 -80 -72 -86 -126 -6 -55 11 -98 59 -149 l37 -40
4 -105 c2 -58 8 -113 12 -122 7 -16 1 -18 -69 -18 -67 0 -76 2 -74 18 3 36 -2
51 -27 81 -28 33 -75 42 -115 21 -27 -15 -52 -68 -45 -96 10 -39 -19 -41 -59
-5 -20 17 -42 31 -50 31 -26 0 -77 -54 -77 -82 -1 -27 38 -78 59 -78 7 0 13
-5 13 -10 0 -6 -11 -8 -25 -4 -18 5 -35 -1 -60 -21 -101 -76 -109 -115 -40
-199 25 -31 45 -60 45 -65 0 -6 -15 -21 -33 -35 -19 -14 -42 -41 -52 -60 -16
-29 -17 -38 -6 -65 7 -17 34 -47 60 -68 58 -47 62 -53 50 -74 -17 -34 -10 -67
22 -93 41 -35 65 -33 105 9 21 22 38 33 48 29 19 -7 20 -16 5 -31 -28 -28 31
-113 79 -113 51 0 113 67 109 115 -2 15 4 20 23 20 20 0 25 -6 31 -34 10 -47
75 -110 122 -118 36 -5 41 -3 87 46 32 33 50 60 50 75 0 30 14 40 45 32 17 -4
22 -11 18 -26 -7 -25 30 -84 62 -98 41 -19 64 -14 97 18 27 27 30 36 25 70 -6
50 13 54 50 10 29 -36 60 -38 97 -9 38 30 47 58 29 93 -15 28 -14 30 18 55
118 90 127 129 49 201 -27 25 -50 50 -50 55 0 5 23 30 50 55 41 38 50 52 50
81 0 40 -25 73 -89 118 -34 24 -47 28 -62 20 -29 -15 -23 -2 16 37 19 19 35
44 35 55 0 25 -61 89 -84 89 -8 0 -31 -14 -51 -31 -44 -39 -66 -33 -58 15 5
30 1 40 -25 66 -59 58 -152 25 -157 -56 l-3 -39 -77 -3 c-71 -3 -77 -1 -69 15
4 10 10 68 13 129 6 109 6 112 37 137 56 47 79 127 55 190 -13 33 -64 85 -96
97 -40 15 -86 11 -127 -10z m153 -59 c33 -33 39 -45 39 -81 0 -54 -25 -96 -70
-117 l-35 -17 3 -128 c3 -124 3 -128 -17 -128 -20 0 -21 5 -21 129 l0 129 -31
12 c-42 18 -69 65 -69 119 0 37 6 49 39 82 33 33 45 39 81 39 36 0 48 -6 81
-39z m-297 -473 c-3 -5 -34 -8 -70 -8 -69 0 -77 8 -46 47 27 35 63 34 94 -1
14 -17 24 -34 22 -38z m557 35 c7 -16 15 -30 16 -33 2 -3 -28 -5 -67 -5 -38 0
-70 4 -70 8 0 5 8 19 18 32 26 36 84 35 103 -2z m181 -122 l-15 -27 -32 35
-32 35 21 17 c20 17 22 17 48 -8 25 -24 25 -26 10 -52z m-979 56 c16 -11 15
-15 -16 -45 l-33 -32 -14 25 c-12 22 -11 27 5 45 21 23 34 25 58 7z m871 -76
l36 -35 0 -269 0 -269 -39 -39 -39 -39 -369 0 c-491 0 -454 -29 -452 352 1
238 2 254 21 281 40 56 50 57 445 54 l362 -2 35 -34z m-934 -191 c0 -99 -2
-118 -14 -114 -8 3 -17 16 -20 29 -3 13 -20 32 -36 42 -25 14 -30 24 -30 54 0
28 5 38 24 47 14 6 32 23 42 37 9 14 20 25 25 25 5 0 9 -54 9 -120z m1074 95
c3 -9 21 -25 41 -36 29 -17 35 -27 35 -55 0 -27 -6 -36 -30 -49 -17 -9 -36
-27 -42 -40 -6 -14 -17 -25 -25 -25 -10 0 -13 25 -13 110 0 87 3 110 14 110 8
0 16 -7 20 -15z m10 -290 c20 -19 42 -35 51 -35 11 0 15 -11 15 -39 0 -34 -4
-40 -29 -49 -16 -6 -37 -22 -46 -36 -10 -14 -21 -26 -26 -26 -5 0 -9 50 -9
110 0 61 2 110 5 110 2 0 20 -16 39 -35z m-1084 -87 l-1 -113 -30 38 c-17 20
-37 37 -45 37 -7 0 -18 9 -24 19 -18 35 -12 60 20 76 16 8 34 24 40 35 6 11
17 20 25 20 12 0 15 -20 15 -112z m80 -218 c0 -5 -12 -13 -26 -16 -19 -5 -31
-1 -46 13 -19 20 -19 22 -2 47 l17 27 29 -31 c15 -17 28 -35 28 -40z m959 43
c11 -24 9 -29 -13 -52 l-26 -25 -22 22 -22 22 29 30 c35 37 39 37 54 3z m-748
-102 c-12 -12 -21 -25 -21 -31 0 -5 -18 -10 -40 -10 -25 0 -40 5 -40 13 0 6
-3 22 -6 34 -6 21 -2 22 52 25 71 4 83 -3 55 -31z m329 30 c0 -17 -81 -91 -99
-91 -19 0 -101 70 -101 87 0 5 45 10 100 10 55 1 100 -2 100 -6z m241 -36
c-13 -29 -21 -34 -49 -35 -25 0 -35 6 -44 25 -6 14 -15 25 -20 25 -4 0 -8 4
-8 9 0 10 90 19 121 13 14 -3 14 -6 0 -37z"/>
<path d="M927 1509 c-24 -14 -49 -73 -40 -96 13 -38 46 -63 83 -63 76 0 111
90 55 145 -26 27 -67 32 -98 14z m71 -51 c19 -19 14 -48 -10 -57 -39 -15 -65
10 -53 50 7 22 45 25 63 7z"/>
<path d="M689 741 c-28 -29 -31 -36 -26 -74 7 -52 44 -87 90 -87 57 1 103 57
93 114 -8 43 -35 66 -85 73 -35 5 -44 2 -72 -26z m94 -53 c13 -20 -6 -48 -34
-48 -22 0 -35 36 -18 56 15 18 38 15 52 -8z"/>
<path d="M1122 745 c-17 -14 -33 -39 -37 -55 -7 -33 15 -84 44 -100 62 -32
141 15 141 85 0 27 -8 44 -29 66 -37 37 -79 38 -119 4z m81 -57 c14 -21 2 -48
-22 -48 -30 0 -45 34 -25 55 18 18 33 16 47 -7z"/>
<path d="M840 485 c-24 -29 0 -35 136 -35 l134 0 0 25 0 25 -129 0 c-100 0
-131 -3 -141 -15z"/>
</g>
</svg>
