<?xml version="1.0" encoding="UTF-8"?>
<svg version="1.1" xmlns="http://www.w3.org/2000/svg" width="48" height="48">
<path d="M0 0 C0.72680969 0.00424484 1.45361938 0.00848969 2.20245361 0.01286316 C4.51556004 0.02960745 6.82778355 0.0672499 9.140625 0.10546875 C10.71222697 0.12052117 12.28384264 0.1342086 13.85546875 0.14648438 C17.70113163 0.17694105 21.54489434 0.23566482 25.390625 0.29296875 C25.720625 9.20296875 26.050625 18.11296875 26.390625 27.29296875 C27.050625 27.62296875 27.710625 27.95296875 28.390625 28.29296875 C28.390625 31.92296875 28.390625 35.55296875 28.390625 39.29296875 C27.730625 39.29296875 27.070625 39.29296875 26.390625 39.29296875 C26.390625 39.95296875 26.390625 40.61296875 26.390625 41.29296875 C24.410625 41.78796875 24.410625 41.78796875 22.390625 42.29296875 C22.060625 41.30296875 21.730625 40.31296875 21.390625 39.29296875 C20.40312256 39.78192627 19.41562012 40.27088379 18.39819336 40.7746582 C14.37349168 42.49217309 10.60149766 42.68073327 6.26953125 42.5859375 C5.52477036 42.58169266 4.78000946 42.57744781 4.01268005 42.57307434 C1.65911027 42.55642599 -0.69356879 42.5188025 -3.046875 42.48046875 C-4.65298233 42.4654039 -6.25910323 42.45171866 -7.86523438 42.43945312 C-11.78028547 42.40656827 -15.69467979 42.35488501 -19.609375 42.29296875 C-19.80830513 37.86409534 -19.95282422 33.4376357 -20.04882812 29.00561523 C-20.08887146 27.50092242 -20.14332884 25.99653726 -20.21289062 24.49291992 C-20.77510548 12.02084489 -20.77510548 12.02084489 -17.93359375 7.80908203 C-15.90739728 6.023003 -13.93438824 4.6578713 -11.609375 3.29296875 C-11.01930664 2.74914551 -10.42923828 2.20532227 -9.82128906 1.64501953 C-6.64002725 -0.29955308 -3.61189031 -0.07975873 0 0 Z " fill="#5D5F5A" transform="translate(19.609375,2.70703125)"/>
<path d="M0 0 C1.05692047 0.00636726 1.05692047 0.00636726 2.13519287 0.01286316 C4.37698212 0.02960337 6.61785931 0.06724471 8.859375 0.10546875 C10.38279948 0.12052171 11.90623811 0.13420905 13.4296875 0.14648438 C17.15654441 0.17949084 20.88287063 0.23124021 24.609375 0.29296875 C24.60413818 0.95304932 24.59890137 1.61312988 24.59350586 2.29321289 C24.57258549 5.31395497 24.5596672 8.33468175 24.546875 11.35546875 C24.53430664 12.91297852 24.53430664 12.91297852 24.52148438 14.50195312 C24.17600094 24.36747428 24.17600094 24.36747428 27.609375 33.29296875 C25.25355906 32.35064237 23.88158627 31.71545962 22.48876953 29.55371094 C21.43550445 26.84598337 21.38181704 24.77318492 21.4140625 21.87109375 C21.42050781 20.84628906 21.42695312 19.82148438 21.43359375 18.765625 C21.45035156 17.70214844 21.46710937 16.63867188 21.484375 15.54296875 C21.49339844 14.46402344 21.50242188 13.38507812 21.51171875 12.2734375 C21.53526195 9.61305597 21.56814701 6.95312539 21.609375 4.29296875 C21.12726562 4.79828125 20.64515625 5.30359375 20.1484375 5.82421875 C19.51679687 6.47390625 18.88515625 7.12359375 18.234375 7.79296875 C17.60789063 8.44265625 16.98140625 9.09234375 16.3359375 9.76171875 C14.609375 11.29296875 14.609375 11.29296875 12.609375 11.29296875 C12.279375 12.61296875 11.949375 13.93296875 11.609375 15.29296875 C11.609375 14.30296875 11.609375 13.31296875 11.609375 12.29296875 C2.039375 11.96296875 -7.530625 11.63296875 -17.390625 11.29296875 C-17.390625 20.86296875 -17.390625 30.43296875 -17.390625 40.29296875 C-14.420625 40.29296875 -11.450625 40.29296875 -8.390625 40.29296875 C-8.41125 38.99359375 -8.431875 37.69421875 -8.453125 36.35546875 C-8.47461954 35.00131242 -8.46210699 33.64540792 -8.390625 32.29296875 C-8.060625 31.96296875 -7.730625 31.63296875 -7.390625 31.29296875 C-4.69979628 31.46932327 -2.06211054 31.91132796 0.609375 32.29296875 C0.609375 33.61296875 0.609375 34.93296875 0.609375 36.29296875 C0.939375 37.94296875 1.269375 39.59296875 1.609375 41.29296875 C-8.785625 41.78796875 -8.785625 41.78796875 -19.390625 42.29296875 C-19.57524097 37.85962136 -19.73402823 33.43975868 -19.83007812 29.00561523 C-19.87012146 27.50092242 -19.92457884 25.99653726 -19.99414062 24.49291992 C-20.55635548 12.02084489 -20.55635548 12.02084489 -17.71484375 7.80908203 C-15.68864728 6.023003 -13.71563824 4.6578713 -11.390625 3.29296875 C-10.49875488 2.47723389 -10.49875488 2.47723389 -9.58886719 1.64501953 C-6.3731663 -0.33282937 -3.74639524 -0.04459994 0 0 Z " fill="#898B6B" transform="translate(19.390625,2.70703125)"/>
<path d="M0 0 C20.28571429 -0.14285714 20.28571429 -0.14285714 29 1 C29 3.97 29 6.94 29 10 C22.565 10.495 22.565 10.495 16 11 C17.32 11.33 18.64 11.66 20 12 C19.67 14.97 19.34 17.94 19 21 C16.03 21 13.06 21 10 21 C9.67 23.64 9.34 26.28 9 29 C6.03 29 3.06 29 0 29 C0 19.43 0 9.86 0 0 Z " fill="#898C86" transform="translate(2,14)"/>
<path d="M0 0 C1.06154297 0.02320313 1.06154297 0.02320313 2.14453125 0.046875 C7.57930943 0.19536621 12.98537136 0.58697307 18.375 1.3125 C16.70833333 2.97916667 15.04166667 4.64583333 13.375 6.3125 C12.93889404 6.86139893 12.50278809 7.41029785 12.0534668 7.97583008 C9.61634173 9.91666786 7.90217501 9.56540437 4.83203125 9.38671875 C3.75888672 9.33193359 2.68574219 9.27714844 1.58007812 9.22070312 C0.46052734 9.14787109 -0.65902344 9.07503906 -1.8125 9 C-2.94365234 8.93876953 -4.07480469 8.87753906 -5.24023438 8.81445312 C-8.03625303 8.66108501 -10.83063763 8.49322046 -13.625 8.3125 C-10.37733736 1.57585411 -7.53355046 -0.32387226 0 0 Z " fill="#E3E346" transform="translate(20.625,4.6875)"/>
<path d="M0 0 C0.66 0.33 1.32 0.66 2 1 C1.43410156 1.40347656 0.86820313 1.80695312 0.28515625 2.22265625 C-3.41652021 5.28678562 -5.68699381 7.59714842 -6.75390625 12.37890625 C-7.00959557 16.27106596 -7.05729629 20.10003241 -7 24 C-7.00810521 25.36070341 -7.0197947 26.72139042 -7.03515625 28.08203125 C-7.05861402 31.38957634 -7.04586241 34.69281059 -7 38 C-4.03 38 -1.06 38 2 38 C1.979375 36.700625 1.95875 35.40125 1.9375 34.0625 C1.91600546 32.70834367 1.92851801 31.35243917 2 30 C2.33 29.67 2.66 29.34 3 29 C5.69082872 29.17635452 8.32851446 29.61835921 11 30 C11 31.32 11 32.64 11 34 C11.33 35.65 11.66 37.3 12 39 C1.605 39.495 1.605 39.495 -9 40 C-9.18461597 35.56665261 -9.34340323 31.14678993 -9.43945312 26.71264648 C-9.47949646 25.20795367 -9.53395384 23.70356851 -9.60351562 22.19995117 C-10.16811397 9.67500114 -10.16811397 9.67500114 -7.21875 5.44580078 C-5.2247483 3.70416492 -3.29095088 2.31570751 -1 1 C-0.67 0.67 -0.34 0.34 0 0 Z " fill="#3B3B3A" transform="translate(9,5)"/>
<path d="M0 0 C0 7.92 0 15.84 0 24 C-0.99 23.67 -1.98 23.34 -3 23 C-3 22.34 -3 21.68 -3 21 C-3.66 21 -4.32 21 -5 21 C-5.33 21.99 -5.66 22.98 -6 24 C-6.66 24 -7.32 24 -8 24 C-9.50191746 18.69911485 -9.9985771 13.43669755 -9 8 C-3.53658537 0 -3.53658537 0 0 0 Z " fill="#A4D007" transform="translate(42,6)"/>
<path d="M0 0 C0.33 0 0.66 0 1 0 C1.33 8.91 1.66 17.82 2 27 C2.66 27.33 3.32 27.66 4 28 C4 31.63 4 35.26 4 39 C3.34 39 2.68 39 2 39 C2 39.66 2 40.32 2 41 C0.0625 41.5625 0.0625 41.5625 -2 42 C-3 41 -3 41 -3.0625 38.4375 C-3.041875 37.633125 -3.02125 36.82875 -3 36 C-3.99 36 -4.98 36 -6 36 C-6 32.37 -6 28.74 -6 25 C-5.21625 25.804375 -4.4325 26.60875 -3.625 27.4375 C-1.28017144 29.98690417 -1.28017144 29.98690417 1 31 C0.67 30.67 0.34 30.34 0 30 C-1.18869069 23.88912535 -1.1493458 17.83317909 -1.125 11.625 C-1.12886719 10.61566406 -1.13273437 9.60632813 -1.13671875 8.56640625 C-1.13542969 7.60863281 -1.13414063 6.65085937 -1.1328125 5.6640625 C-1.13168457 4.79217285 -1.13055664 3.9202832 -1.12939453 3.02197266 C-1 1 -1 1 0 0 Z " fill="#898987" transform="translate(44,3)"/>
<path d="M0 0 C0.33 0 0.66 0 1 0 C1.33 5.28 1.66 10.56 2 16 C2.99 15.01 3.98 14.02 5 13 C5.66 13.33 6.32 13.66 7 14 C6.67 17.63 6.34 21.26 6 25 C6.99 25 7.98 25 9 25 C9 25.99 9 26.98 9 28 C6.36 28.99 3.72 29.98 1 31 C1 29 1 29 2.5 27.375 C3.2425 26.694375 3.2425 26.694375 4 26 C2.68 26.33 1.36 26.66 0 27 C0 18.09 0 9.18 0 0 Z " fill="#769B1A" transform="translate(32,14)"/>
<path d="M0 0 C2.97 0 5.94 0 9 0 C9 2.97 9 5.94 9 9 C6.03 9 3.06 9 0 9 C0 6.03 0 3.06 0 0 Z " fill="#DCF1C7" transform="translate(2,34)"/>
<path d="M0 0 C2.97 0.33 5.94 0.66 9 1 C8.67 3.97 8.34 6.94 8 10 C5.36 9.67 2.72 9.34 0 9 C-1.10844919 5.67465243 -0.84454356 3.37817425 0 0 Z " fill="#E1F3CF" transform="translate(13,25)"/>
<path d="M0 0 C2.97 0 5.94 0 9 0 C9 2.97 9 5.94 9 9 C6.03 9 3.06 9 0 9 C0 6.03 0 3.06 0 0 Z " fill="#ECF7E1" transform="translate(2,24)"/>
<path d="M0 0 C2.97 0 5.94 0 9 0 C9 2.97 9 5.94 9 9 C6.03 9 3.06 9 0 9 C0 6.03 0 3.06 0 0 Z " fill="#ECF8E0" transform="translate(22,15)"/>
<path d="M0 0 C1.33846463 0.00063142 2.67703621 0.02312425 4.01489258 0.06347656 C5.07393547 0.07196625 5.07393547 0.07196625 6.15437317 0.08062744 C8.40675009 0.10299746 10.65752886 0.15318957 12.90942383 0.20410156 C14.43739562 0.224166 15.96539239 0.24241688 17.4934082 0.25878906 C21.23686139 0.30286354 24.97912178 0.37189082 28.72192383 0.45410156 C28.72192383 0.78410156 28.72192383 1.11410156 28.72192383 1.45410156 C27.84979248 1.4425 26.97766113 1.43089844 26.07910156 1.41894531 C22.81427891 1.39464411 19.55357598 1.40639838 16.2890625 1.44189453 C14.88184546 1.44996066 13.47447086 1.4440299 12.06738281 1.42333984 C3.67823389 1.11358653 3.67823389 1.11358653 -3.80493164 4.30175781 C-5.99135556 6.69157969 -5.99135556 6.69157969 -8.27807617 10.45410156 C-2.33807617 10.45410156 3.60192383 10.45410156 9.72192383 10.45410156 C5.97836241 12.32588227 5.21386188 12.70352571 1.39379883 12.43066406 C0.59458008 12.37910156 -0.20463867 12.32753906 -1.02807617 12.27441406 C-1.85307617 12.20996094 -2.67807617 12.14550781 -3.52807617 12.07910156 C-4.36854492 12.02238281 -5.20901367 11.96566406 -6.07495117 11.90722656 C-8.14336659 11.76619824 -10.21084077 11.61148368 -12.27807617 11.45410156 C-10.81323242 9.76139323 -9.34838867 8.0686849 -7.88354492 6.37597656 C-6.22298054 4.51497497 -6.22298054 4.51497497 -5.13354492 2.35839844 C-3.27807617 0.45410156 -3.27807617 0.45410156 0 0 Z " fill="#5C5C5B" transform="translate(15.278076171875,2.5458984375)"/>
<path d="M0 0 C1.08667969 0.02707031 2.17335938 0.05414062 3.29296875 0.08203125 C4.54013672 0.13423828 4.54013672 0.13423828 5.8125 0.1875 C-0.74786845 6.90177739 -0.74786845 6.90177739 -5.35546875 7.44140625 C-7.30131761 7.43796227 -9.24625912 7.32137868 -11.1875 7.1875 C-8.5404966 1.28264626 -6.59771879 -0.21282964 0 0 Z " fill="#E3E395" transform="translate(19.1875,4.8125)"/>
<path d="M0 0 C2.97 0 5.94 0 9 0 C9 2.64 9 5.28 9 8 C6.03 8 3.06 8 0 8 C0 5.36 0 2.72 0 0 Z " fill="#F3FAED" transform="translate(12,15)"/>
<path d="M0 0 C2.64 0 5.28 0 8 0 C8 2.97 8 5.94 8 9 C5.36 9 2.72 9 0 9 C0 6.03 0 3.06 0 0 Z " fill="#F6F9F4" transform="translate(3,14)"/>
<path d="M0 0 C4.875 1.875 4.875 1.875 6 3 C6.125 5.5 6.125 5.5 6 8 C5 9 5 9 1.625 9.1875 C-2 9 -2 9 -5 7 C-3.70700306 4.11562221 -2.34058637 2.12780579 0 0 Z " fill="#D6F4B8" transform="translate(24,34)"/>
<path d="M0 0 C2.96404505 2.80804268 5.44499019 5.18315774 7 9 C6.01 9.495 6.01 9.495 5 10 C5.66 11.98 6.32 13.96 7 16 C5.68 16 4.36 16 3 16 C3 14.35 3 12.7 3 11 C2.01 11 1.02 11 0 11 C0 7.37 0 3.74 0 0 Z " fill="#ECF9DF" transform="translate(38,28)"/>
<path d="M0 0 C4.29 0 8.58 0 13 0 C13.06058594 1.50691406 13.12117188 3.01382812 13.18359375 4.56640625 C13.2680461 6.56511191 13.35269172 8.56380941 13.4375 10.5625 C13.47681641 11.55314453 13.51613281 12.54378906 13.55664062 13.56445312 C13.60596663 23.25133189 13.60596663 23.25133189 17 32 C14.65269094 31.06107638 13.27238895 30.41438767 11.86572266 28.27441406 C10.79259942 25.45512019 10.86340136 23.36805439 11.0234375 20.359375 C11.075 19.28945313 11.1265625 18.21953125 11.1796875 17.1171875 C11.27636719 15.45042969 11.27636719 15.45042969 11.375 13.75 C11.43171875 12.62335937 11.4884375 11.49671875 11.546875 10.3359375 C11.6881881 7.55677992 11.84281759 4.77830523 12 2 C8.04 1.67 4.08 1.34 0 1 C0 0.67 0 0.34 0 0 Z " fill="#757672" transform="translate(30,4)"/>
<path d="M0 0 C0.57234375 0.22558594 1.1446875 0.45117188 1.734375 0.68359375 C0.950625 1.09609375 0.166875 1.50859375 -0.640625 1.93359375 C-3.65064949 3.6267445 -3.65064949 3.6267445 -5.265625 7.68359375 C-10.215625 7.68359375 -15.165625 7.68359375 -20.265625 7.68359375 C-19.935625 7.02359375 -19.605625 6.36359375 -19.265625 5.68359375 C-17.5640625 5.86921875 -17.5640625 5.86921875 -15.828125 6.05859375 C-10.88878516 6.1200065 -8.10879156 3.88473845 -4.34375 0.8984375 C-2.265625 -0.31640625 -2.265625 -0.31640625 0 0 Z " fill="#DEDE76" transform="translate(27.265625,5.31640625)"/>
<path d="M0 0 C1.32 0 2.64 0 4 0 C4 3.3 4 6.6 4 10 C3.34 10 2.68 10 2 10 C1.67 10.66 1.34 11.32 1 12 C0.01 9.69 -0.98 7.38 -2 5 C-0.68 4.34 0.64 3.68 2 3 C1.34 2.01 0.68 1.02 0 0 Z " fill="#9C9B8A" transform="translate(44,32)"/>
<path d="M0 0 C0.375 2.6875 0.375 2.6875 0 6 C-1.823983 8.06398076 -3.72763839 9.39041053 -6 11 C-6.875 8.875 -6.875 8.875 -7 6 C-2.55971897 0 -2.55971897 0 0 0 Z " fill="#CEDE0E" transform="translate(41,12)"/>
<path d="M0 0 C0.66 0.33 1.32 0.66 2 1 C1.67 4.63 1.34 8.26 1 12 C1.99 12 2.98 12 4 12 C4 12.99 4 13.98 4 15 C1.36 15.99 -1.28 16.98 -4 18 C-4 17.34 -4 16.68 -4 16 C-3.51917969 15.60167969 -3.03835937 15.20335937 -2.54296875 14.79296875 C-0.25238913 12.13125725 -0.48339453 9.76456949 -0.3125 6.3125 C-0.21388672 4.54326172 -0.21388672 4.54326172 -0.11328125 2.73828125 C-0.07589844 1.83464844 -0.03851563 0.93101563 0 0 Z " fill="#9EA479" transform="translate(37,27)"/>
<path d="M0 0 C0.33 1.32 0.66 2.64 1 4 C1.99 3.67 2.98 3.34 4 3 C4 5.97 4 8.94 4 12 C2.68 12 1.36 12 0 12 C0.66 10.68 1.32 9.36 2 8 C1.34 8 0.68 8 0 8 C0 5.36 0 2.72 0 0 Z " fill="#82AF09" transform="translate(33,26)"/>
<path d="M0 0 C0.33 0 0.66 0 1 0 C1 3.96 1 7.92 1 12 C0.01 11.67 -0.98 11.34 -2 11 C-2 10.34 -2 9.68 -2 9 C-2.66 9 -3.32 9 -4 9 C-3.71125 8.443125 -3.4225 7.88625 -3.125 7.3125 C-1.9586747 4.91505355 -0.9660119 2.48403061 0 0 Z " fill="#91B220" transform="translate(41,18)"/>
<path d="M0 0 C-1.66666667 1.66666667 -3.33333333 3.33333333 -5 5 C-5.556875 5.598125 -6.11375 6.19625 -6.6875 6.8125 C-8 8 -8 8 -10 8 C-10 7.01 -10 6.02 -10 5 C-9.34 5 -8.68 5 -8 5 C-8 4.34 -8 3.68 -8 3 C-5.65966534 -0.20256322 -3.8395009 -0.31131088 0 0 Z " fill="#DADA40" transform="translate(39,6)"/>
<path d="M0 0 C-4.75 3 -4.75 3 -7 3 C-7 3.99 -7 4.98 -7 6 C-7.99 6 -8.98 6 -10 6 C-8.54794521 1.40182648 -8.54794521 1.40182648 -6.125 -0.375 C-3.6665651 -1.09806909 -2.38500154 -0.85178626 0 0 Z " fill="#E6E65C" transform="translate(32,7)"/>
<path d="M0 0 C2.64 0 5.28 0 8 0 C5.3401439 3.44216672 2.09711714 3.99504674 -2 5 C-1.34 3.35 -0.68 1.7 0 0 Z " fill="#ECECA7" transform="translate(13,5)"/>
<path d="M0 0 C0.6875 1.8125 0.6875 1.8125 1 4 C-0.1875 5.8125 -0.1875 5.8125 -2 7 C-4.1875 6.6875 -4.1875 6.6875 -6 6 C-4.60755361 3.21510722 -2.44008012 1.87698471 0 0 Z " fill="#B3CE0A" transform="translate(40,18)"/>
<path d="M0 0 C0.33 0 0.66 0 1 0 C1.12375 0.804375 1.2475 1.60875 1.375 2.4375 C1.58125 3.283125 1.7875 4.12875 2 5 C2.66 5.33 3.32 5.66 4 6 C3.67 7.65 3.34 9.3 3 11 C2.34 11 1.68 11 1 11 C-0.17571451 7.32589215 -0.07366746 3.83070817 0 0 Z " fill="#9DC105" transform="translate(33,19)"/>
<path d="M0 0 C1.32 0.33 2.64 0.66 4 1 C-0.455 3.97 -0.455 3.97 -5 7 C-5.66 6.67 -6.32 6.34 -7 6 C-5.93106782 4.96409662 -4.84421512 3.94666058 -3.75 2.9375 C-3.14671875 2.36902344 -2.5434375 1.80054688 -1.921875 1.21484375 C-1.28765625 0.81394531 -0.6534375 0.41304688 0 0 Z " fill="#EBEB8A" transform="translate(21,5)"/>
<path d="M0 0 C0.99 0 1.98 0 3 0 C3.66 1.98 4.32 3.96 5 6 C3.68 6 2.36 6 1 6 C0.67 4.02 0.34 2.04 0 0 Z " fill="#D1EAB5" transform="translate(40,38)"/>
</svg>
