<?xml version="1.0" encoding="UTF-8" standalone="no"?>
<svg
   width="1177"
   zoomAndPan="magnify"
   viewBox="0 0 882.75 896.249977"
   height="1195"
   preserveAspectRatio="xMidYMid meet"
   version="1.0"
   id="svg32"
   sodipodi:docname="Logos infrony Systems.svg"
   xmlns:inkscape="http://www.inkscape.org/namespaces/inkscape"
   xmlns:sodipodi="http://sodipodi.sourceforge.net/DTD/sodipodi-0.dtd"
   xmlns="http://www.w3.org/2000/svg"
   xmlns:svg="http://www.w3.org/2000/svg">
  <sodipodi:namedview
     id="namedview32"
     pagecolor="#ffffff"
     bordercolor="#000000"
     borderopacity="0.25"
     inkscape:showpageshadow="2"
     inkscape:pageopacity="0.0"
     inkscape:pagecheckerboard="0"
     inkscape:deskcolor="#d1d1d1" />
  <defs
     id="defs13">
    <clipPath
       id="45b2117f15">
      <path
         d="M 0.246094 0 L 882.257812 0 L 882.257812 895 L 0.246094 895 Z M 0.246094 0 "
         clip-rule="nonzero"
         id="path1" />
    </clipPath>
    <clipPath
       id="49871e869c">
      <path
         d="M 318.132812 0 L 569.757812 0 L 569.757812 251.625 L 318.132812 251.625 Z M 318.132812 0 "
         clip-rule="nonzero"
         id="path2" />
    </clipPath>
    <clipPath
       id="c0771660dd">
      <path
         d="M 66 81.007812 L 174.316406 81.007812 L 174.316406 190 L 66 190 Z M 66 81.007812 "
         clip-rule="nonzero"
         id="path3" />
    </clipPath>
    <clipPath
       id="663a539a13">
      <path
         d="M 65.320312 81.007812 L 174.316406 81.007812 L 174.316406 190.003906 L 65.320312 190.003906 Z M 65.320312 81.007812 "
         clip-rule="nonzero"
         id="path4" />
    </clipPath>
    <clipPath
       id="63754d64e7">
      <path
         d="M 717 83 L 825.753906 83 L 825.753906 191.347656 L 717 191.347656 Z M 717 83 "
         clip-rule="nonzero"
         id="path5" />
    </clipPath>
    <clipPath
       id="7d45794bc2">
      <path
         d="M 716.761719 82.355469 L 825.753906 82.355469 L 825.753906 191.347656 L 716.761719 191.347656 Z M 716.761719 82.355469 "
         clip-rule="nonzero"
         id="path6" />
    </clipPath>
    <clipPath
       id="e61b93a033">
      <path
         d="M 639.570312 326.082031 L 881.78125 326.082031 L 881.78125 568.289062 L 639.570312 568.289062 Z M 639.570312 326.082031 "
         clip-rule="nonzero"
         id="path7" />
    </clipPath>
    <clipPath
       id="1b41693334">
      <path
         d="M 0.246094 326.082031 L 242.453125 326.082031 L 242.453125 568.289062 L 0.246094 568.289062 Z M 0.246094 326.082031 "
         clip-rule="nonzero"
         id="path8" />
    </clipPath>
    <clipPath
       id="db32960788">
      <path
         d="M 318.132812 642.925781 L 569.757812 642.925781 L 569.757812 894.554688 L 318.132812 894.554688 Z M 318.132812 642.925781 "
         clip-rule="nonzero"
         id="path9" />
    </clipPath>
    <clipPath
       id="5a5724dfc2">
      <path
         d="M 717 707.117188 L 825.753906 707.117188 L 825.753906 816 L 717 816 Z M 717 707.117188 "
         clip-rule="nonzero"
         id="path10" />
    </clipPath>
    <clipPath
       id="1d41ea731d">
      <path
         d="M 716.761719 707.117188 L 825.753906 707.117188 L 825.753906 816.109375 L 716.761719 816.109375 Z M 716.761719 707.117188 "
         clip-rule="nonzero"
         id="path11" />
    </clipPath>
    <clipPath
       id="fcba7b1ef0">
      <path
         d="M 65 707.117188 L 173.558594 707.117188 L 173.558594 816 L 65 816 Z M 65 707.117188 "
         clip-rule="nonzero"
         id="path12" />
    </clipPath>
    <clipPath
       id="820046ed66">
      <path
         d="M 64.5625 707.117188 L 173.558594 707.117188 L 173.558594 816.109375 L 64.5625 816.109375 Z M 64.5625 707.117188 "
         clip-rule="nonzero"
         id="path13" />
    </clipPath>
    <clipPath
       id="b367b38288">
      <rect
         x="0"
         width="883"
         y="0"
         height="895"
         id="rect13" />
    </clipPath>
  </defs>
  <g
     clip-path="url(#45b2117f15)"
     id="g32">
    <g
       transform="matrix(1, 0, 0, 1, -0.000000000000000028, 0)"
       id="g31">
      <g
         clip-path="url(#b367b38288)"
         id="g30">
        <path
           fill="#b2d731"
           d="M 319.8125 1.679688 L 568.3125 1.679688 L 568.3125 250.179688 L 319.8125 250.179688 Z M 319.8125 1.679688 "
           fill-opacity="1"
           fill-rule="nonzero"
           id="path14" />
        <g
           clip-path="url(#49871e869c)"
           id="g15">
          <path
             fill="#b2d731"
             d="M 568.3125 251.859375 L 319.8125 251.859375 C 318.871094 251.859375 318.132812 251.121094 318.132812 250.179688 L 318.132812 1.679688 C 318.132812 0.738281 318.871094 0 319.8125 0 L 568.3125 0 C 569.253906 0 569.992188 0.738281 569.992188 1.679688 L 569.992188 250.179688 C 569.992188 251.121094 569.253906 251.859375 568.3125 251.859375 Z M 321.492188 248.5 L 566.632812 248.5 L 566.632812 3.359375 L 321.492188 3.359375 Z M 321.492188 248.5 "
             fill-opacity="1"
             fill-rule="nonzero"
             id="path15" />
        </g>
        <g
           clip-path="url(#c0771660dd)"
           id="g16">
          <path
             fill="#b2d731"
             d="M 66.050781 81.738281 L 174.171875 81.738281 L 174.171875 189.859375 L 66.050781 189.859375 Z M 66.050781 81.738281 "
             fill-opacity="1"
             fill-rule="nonzero"
             id="path16" />
        </g>
        <g
           clip-path="url(#663a539a13)"
           id="g17">
          <path
             fill="#b2d731"
             d="M 174.171875 190.589844 L 66.050781 190.589844 C 65.644531 190.589844 65.320312 190.269531 65.320312 189.859375 L 65.320312 81.738281 C 65.320312 81.332031 65.644531 81.007812 66.050781 81.007812 L 174.171875 81.007812 C 174.582031 81.007812 174.902344 81.332031 174.902344 81.738281 L 174.902344 189.859375 C 174.902344 190.269531 174.582031 190.589844 174.171875 190.589844 Z M 66.78125 189.128906 L 173.441406 189.128906 L 173.441406 82.46875 L 66.78125 82.46875 Z M 66.78125 189.128906 "
             fill-opacity="1"
             fill-rule="nonzero"
             id="path17" />
        </g>
        <g
           clip-path="url(#63754d64e7)"
           id="g18">
          <path
             fill="#2c3845"
             d="M 717.492188 83.085938 L 825.613281 83.085938 L 825.613281 191.207031 L 717.492188 191.207031 Z M 717.492188 83.085938 "
             fill-opacity="1"
             fill-rule="nonzero"
             id="path18" />
        </g>
        <g
           clip-path="url(#7d45794bc2)"
           id="g19">
          <path
             fill="#2c3845"
             d="M 825.613281 191.9375 L 717.492188 191.9375 C 717.082031 191.9375 716.761719 191.617188 716.761719 191.207031 L 716.761719 83.085938 C 716.761719 82.675781 717.082031 82.355469 717.492188 82.355469 L 825.613281 82.355469 C 826.019531 82.355469 826.34375 82.675781 826.34375 83.085938 L 826.34375 191.207031 C 826.34375 191.617188 826.019531 191.9375 825.613281 191.9375 Z M 718.222656 190.476562 L 824.882812 190.476562 L 824.882812 83.816406 L 718.222656 83.816406 Z M 718.222656 190.476562 "
             fill-opacity="1"
             fill-rule="nonzero"
             id="path19" />
        </g>
        <path
           fill="#2c3845"
           d="M 641.1875 327.699219 L 880.375 327.699219 L 880.375 566.882812 L 641.1875 566.882812 Z M 641.1875 327.699219 "
           fill-opacity="1"
           fill-rule="nonzero"
           id="path20" />
        <g
           clip-path="url(#e61b93a033)"
           id="g21">
          <path
             fill="#2c3845"
             d="M 880.375 568.5 L 641.1875 568.5 C 640.28125 568.5 639.570312 567.789062 639.570312 566.882812 L 639.570312 327.699219 C 639.570312 326.792969 640.28125 326.082031 641.1875 326.082031 L 880.375 326.082031 C 881.277344 326.082031 881.988281 326.792969 881.988281 327.699219 L 881.988281 566.882812 C 881.988281 567.789062 881.277344 568.5 880.375 568.5 Z M 642.804688 565.265625 L 878.757812 565.265625 L 878.757812 329.3125 L 642.804688 329.3125 Z M 642.804688 565.265625 "
             fill-opacity="1"
             fill-rule="nonzero"
             id="path21" />
        </g>
        <path
           fill="#2c3845"
           d="M 1.859375 327.699219 L 241.046875 327.699219 L 241.046875 566.882812 L 1.859375 566.882812 Z M 1.859375 327.699219 "
           fill-opacity="1"
           fill-rule="nonzero"
           id="path22" />
        <g
           clip-path="url(#1b41693334)"
           id="g23">
          <path
             fill="#2c3845"
             d="M 241.046875 568.5 L 1.859375 568.5 C 0.957031 568.5 0.246094 567.789062 0.246094 566.882812 L 0.246094 327.699219 C 0.246094 326.792969 0.957031 326.082031 1.859375 326.082031 L 241.046875 326.082031 C 241.949219 326.082031 242.660156 326.792969 242.660156 327.699219 L 242.660156 566.882812 C 242.660156 567.789062 241.949219 568.5 241.046875 568.5 Z M 3.476562 565.265625 L 239.429688 565.265625 L 239.429688 329.3125 L 3.476562 329.3125 Z M 3.476562 565.265625 "
             fill-opacity="1"
             fill-rule="nonzero"
             id="path23" />
        </g>
        <path
           fill="#8fcb29"
           d="M 319.8125 644.605469 L 568.3125 644.605469 L 568.3125 893.105469 L 319.8125 893.105469 Z M 319.8125 644.605469 "
           fill-opacity="1"
           fill-rule="nonzero"
           id="path24" />
        <g
           clip-path="url(#db32960788)"
           id="g25">
          <path
             fill="#8fcb29"
             d="M 568.3125 894.785156 L 319.8125 894.785156 C 318.871094 894.785156 318.132812 894.046875 318.132812 893.105469 L 318.132812 644.605469 C 318.132812 643.664062 318.871094 642.925781 319.8125 642.925781 L 568.3125 642.925781 C 569.253906 642.925781 569.992188 643.664062 569.992188 644.605469 L 569.992188 893.105469 C 569.992188 894.046875 569.253906 894.785156 568.3125 894.785156 Z M 321.492188 891.425781 L 566.632812 891.425781 L 566.632812 646.285156 L 321.492188 646.285156 Z M 321.492188 891.425781 "
             fill-opacity="1"
             fill-rule="nonzero"
             id="path25" />
        </g>
        <g
           clip-path="url(#5a5724dfc2)"
           id="g26">
          <path
             fill="#2c3845"
             d="M 717.492188 707.847656 L 825.613281 707.847656 L 825.613281 815.96875 L 717.492188 815.96875 Z M 717.492188 707.847656 "
             fill-opacity="1"
             fill-rule="nonzero"
             id="path26" />
        </g>
        <g
           clip-path="url(#1d41ea731d)"
           id="g27">
          <path
             fill="#2c3845"
             d="M 825.613281 816.699219 L 717.492188 816.699219 C 717.082031 816.699219 716.761719 816.375 716.761719 815.96875 L 716.761719 707.847656 C 716.761719 707.4375 717.082031 707.117188 717.492188 707.117188 L 825.613281 707.117188 C 826.019531 707.117188 826.34375 707.4375 826.34375 707.847656 L 826.34375 815.96875 C 826.34375 816.375 826.019531 816.699219 825.613281 816.699219 Z M 718.222656 815.238281 L 824.882812 815.238281 L 824.882812 708.578125 L 718.222656 708.578125 Z M 718.222656 815.238281 "
             fill-opacity="1"
             fill-rule="nonzero"
             id="path27" />
        </g>
        <g
           clip-path="url(#fcba7b1ef0)"
           id="g28">
          <path
             fill="#d5d5d5"
             d="M 65.292969 707.847656 L 173.414062 707.847656 L 173.414062 815.96875 L 65.292969 815.96875 Z M 65.292969 707.847656 "
             fill-opacity="1"
             fill-rule="nonzero"
             id="path28" />
        </g>
        <g
           clip-path="url(#820046ed66)"
           id="g29">
          <path
             fill="#d5d5d5"
             d="M 173.414062 816.699219 L 65.292969 816.699219 C 64.886719 816.699219 64.5625 816.375 64.5625 815.96875 L 64.5625 707.847656 C 64.5625 707.4375 64.886719 707.117188 65.292969 707.117188 L 173.414062 707.117188 C 173.824219 707.117188 174.144531 707.4375 174.144531 707.847656 L 174.144531 815.96875 C 174.144531 816.375 173.824219 816.699219 173.414062 816.699219 Z M 66.023438 815.238281 L 172.683594 815.238281 L 172.683594 708.578125 L 66.023438 708.578125 Z M 66.023438 815.238281 "
             fill-opacity="1"
             fill-rule="nonzero"
             id="path29" />
        </g>
      </g>
    </g>
  </g>
</svg>
